<svg width="43" height="43" viewBox="0 0 43 43" fill="none" xmlns="http://www.w3.org/2000/svg">
<path d="M9.11658 12.5796H33.7088C34.2071 12.5796 34.6999 12.6841 35.1553 12.8862C35.6108 13.0883 36.0189 13.3836 36.3532 13.7531C36.6876 14.1226 36.9408 14.558 37.0966 15.0313C37.2524 15.5046 37.3072 16.0054 37.2576 16.5012L36.1876 27.2012C36.0996 28.0813 35.6878 28.8973 35.032 29.4908C34.3762 30.0843 33.5233 30.413 32.6388 30.413H15.6079C14.7831 30.4133 13.9836 30.1278 13.3457 29.6049C12.7077 29.082 12.2707 28.3542 12.109 27.5454L9.11658 12.5796Z" stroke="#2B2B2B" stroke-width="2.4452" stroke-linejoin="round"/>
<path d="M9.11649 12.5796L7.67199 6.79627C7.57538 6.41063 7.35269 6.06832 7.03927 5.82373C6.72586 5.57914 6.33971 5.44629 5.94215 5.44628H3.76648M14.4665 37.5463H18.0332M28.7332 37.5463H32.2999" stroke="#2B2B2B" stroke-width="2.4452" stroke-linecap="round" stroke-linejoin="round"/>
</svg>
