<svg width="27" height="27" viewBox="0 0 27 27" fill="none" xmlns="http://www.w3.org/2000/svg">
<path d="M5.16809 7.2373H23.3615C23.7301 7.23732 24.0947 7.31458 24.4316 7.4641C24.7686 7.61363 25.0705 7.8321 25.3178 8.10543C25.5652 8.37877 25.7525 8.7009 25.8678 9.05107C25.983 9.40124 26.0236 9.77167 25.9869 10.1385L25.1953 18.0544C25.1302 18.7055 24.8255 19.3092 24.3404 19.7482C23.8552 20.1873 23.2242 20.4305 22.5699 20.4305H9.97041C9.36019 20.4307 8.76874 20.2195 8.29678 19.8326C7.82482 19.4458 7.50151 18.9074 7.38191 18.309L5.16809 7.2373Z" stroke="#0B3232" stroke-width="2" stroke-linejoin="round"/>
<path d="M5.16804 7.23748L4.09939 2.95893C4.02792 2.67363 3.86317 2.42039 3.63131 2.23945C3.39944 2.0585 3.11377 1.96021 2.81965 1.96021H1.21008M9.12599 25.7079H11.7646M19.6805 25.7079H22.3192" stroke="#0B3232" stroke-width="2" stroke-linecap="round" stroke-linejoin="round"/>
</svg>
