<svg width="34" height="34" viewBox="0 0 34 34" fill="none" xmlns="http://www.w3.org/2000/svg">
<path d="M7.625 34C6.59375 34 5.71125 33.6304 4.9775 32.8912C4.24376 32.152 3.87626 31.2624 3.87501 30.2222V5.66667C3.34376 5.66667 2.89876 5.48533 2.54001 5.12267C2.18126 4.76 2.00126 4.3117 2.00001 3.77778C1.99876 3.24385 2.17876 2.79556 2.54001 2.43289C2.90126 2.07022 3.34626 1.88889 3.87501 1.88889H11.375C11.375 1.3537 11.555 0.905408 11.915 0.544C12.275 0.182593 12.72 0.00125926 13.25 0H20.75C21.2812 0 21.7269 0.181334 22.0869 0.544C22.4469 0.906667 22.6262 1.35496 22.625 1.88889H30.125C30.6562 1.88889 31.1019 2.07022 31.4619 2.43289C31.8219 2.79556 32.0012 3.24385 32 3.77778C31.9987 4.3117 31.8187 4.76063 31.46 5.12455C31.1012 5.48848 30.6562 5.66918 30.125 5.66667V30.2222C30.125 31.2611 29.7581 32.1508 29.0244 32.8912C28.2906 33.6317 27.4075 34.0013 26.375 34H7.625ZM26.375 5.66667H7.625V30.2222H26.375V5.66667ZM13.25 26.4444C13.7813 26.4444 14.2269 26.2631 14.5869 25.9004C14.9469 25.5378 15.1263 25.0895 15.125 24.5556V11.3333C15.125 10.7981 14.945 10.3499 14.585 9.98844C14.225 9.62704 13.78 9.4457 13.25 9.44444C12.72 9.44318 12.275 9.62452 11.915 9.98844C11.555 10.3524 11.375 10.8007 11.375 11.3333V24.5556C11.375 25.0907 11.555 25.5397 11.915 25.9023C12.275 26.265 12.72 26.4457 13.25 26.4444ZM20.75 26.4444C21.2812 26.4444 21.7269 26.2631 22.0869 25.9004C22.4469 25.5378 22.6262 25.0895 22.625 24.5556V11.3333C22.625 10.7981 22.445 10.3499 22.085 9.98844C21.725 9.62704 21.28 9.4457 20.75 9.44444C20.22 9.44318 19.775 9.62452 19.415 9.98844C19.055 10.3524 18.875 10.8007 18.875 11.3333V24.5556C18.875 25.0907 19.055 25.5397 19.415 25.9023C19.775 26.265 20.22 26.4457 20.75 26.4444Z" fill="#F29374"/>
</svg>
