<svg width="194" height="168" viewBox="0 0 194 168" fill="none" xmlns="http://www.w3.org/2000/svg">
<path fill-rule="evenodd" clip-rule="evenodd" d="M105.549 2.27731C99.989 0.494477 94.0106 0.494477 88.4504 2.27731L27.4664 21.84C25.278 22.5523 23.4299 24.0481 22.2771 26.04L1.39843 62.104C0.700287 63.3105 0.28128 64.6582 0.172183 66.0479C0.0630863 67.4376 0.266671 68.8341 0.767983 70.1348C1.2693 71.4356 2.0556 72.6075 3.06916 73.5645C4.08271 74.5215 5.29777 75.2394 6.6251 75.6653L73.2651 97.0573C75.2937 97.7085 77.484 97.646 79.4722 96.8803C81.4604 96.1146 83.1267 94.6917 84.1944 92.848L87.6664 86.856V108.481C87.6664 109.952 87.3189 111.401 86.6524 112.712C85.9859 114.022 85.0191 115.157 83.8309 116.023C82.6427 116.889 81.2667 117.462 79.815 117.696C78.3633 117.929 76.8769 117.817 75.4771 117.367L20.9891 99.8853V130.48C20.9872 134.434 22.2408 138.286 24.569 141.481C26.8971 144.677 30.1798 147.05 33.9438 148.26L88.4504 165.732C94.0106 167.515 99.989 167.515 105.549 165.732L160.056 148.26C163.821 147.052 167.106 144.679 169.436 141.483C171.766 138.288 173.021 134.435 173.02 130.48L173.001 99.8853L118.522 117.367C117.122 117.817 115.635 117.93 114.182 117.696C112.73 117.462 111.353 116.888 110.165 116.02C108.976 115.153 108.01 114.017 107.344 112.706C106.678 111.394 106.332 109.943 106.333 108.472V86.8466L109.796 92.8386C110.865 94.6806 112.532 96.1016 114.52 96.8656C116.508 97.6296 118.698 97.6906 120.725 97.0386L187.374 75.6653C188.703 75.2397 189.919 74.5216 190.934 73.5639C191.949 72.6063 192.735 71.4333 193.237 70.1314C193.738 68.8294 193.941 67.4316 193.831 66.0408C193.721 64.65 193.301 63.3015 192.601 62.0946L171.722 26.04C170.57 24.0481 168.722 22.5523 166.533 21.84L105.549 2.27731ZM133.11 30.7253L96.9998 42.308L60.8798 30.7253L94.1438 20.048C95.9981 19.453 97.9921 19.453 99.8464 20.048L133.11 30.7253Z" fill="#D97B4C"/>
</svg>
