<svg width="319" height="37" viewBox="0 0 319 37" fill="none" xmlns="http://www.w3.org/2000/svg">
<path d="M11.7719 19.75C13.1719 19.75 14.2385 19.4333 14.9719 18.8C15.7385 18.1333 16.1219 17.1333 16.1219 15.8C16.1219 14.5333 15.7219 13.5667 14.9219 12.9C14.1552 12.2 13.0219 11.85 11.5219 11.85C10.9885 11.85 10.5385 11.8667 10.1719 11.9C9.83854 11.9 9.48854 11.9333 9.12188 12V19.75H11.7719ZM9.17188 35.8C8.80521 35.9 8.22188 36 7.42188 36.1C6.65521 36.2 5.88854 36.25 5.12188 36.25C4.35521 36.25 3.67188 36.1833 3.07188 36.05C2.50521 35.95 2.02188 35.75 1.62188 35.45C1.22188 35.15 0.921875 34.7333 0.721875 34.2C0.521875 33.6667 0.421875 32.9667 0.421875 32.1V8.55C0.421875 7.85 0.605209 7.31666 0.971875 6.95C1.37188 6.55 1.90521 6.23333 2.57188 6C3.70521 5.6 4.98854 5.31666 6.42188 5.15C7.88854 4.95 9.35521 4.85 10.8219 4.85C15.4219 4.85 18.9385 5.83333 21.3719 7.8C23.8052 9.76667 25.0219 12.4333 25.0219 15.8C25.0219 17.4333 24.7552 18.9167 24.2219 20.25C23.7219 21.55 22.9552 22.6833 21.9219 23.65C20.9219 24.5833 19.6385 25.3167 18.0719 25.85C16.5385 26.35 14.7552 26.6 12.7219 26.6H9.17188V35.8ZM38.7363 30.6C39.303 30.6 39.9197 30.55 40.5863 30.45C41.2863 30.3167 41.803 30.15 42.1363 29.95V25.95L38.5363 26.25C37.603 26.3167 36.8363 26.5167 36.2363 26.85C35.6363 27.1833 35.3363 27.6833 35.3363 28.35C35.3363 29.0167 35.5863 29.5667 36.0863 30C36.6197 30.4 37.503 30.6 38.7363 30.6ZM38.3363 10.95C40.1363 10.95 41.7697 11.1333 43.2363 11.5C44.7363 11.8667 46.003 12.4333 47.0363 13.2C48.103 13.9333 48.9197 14.8833 49.4863 16.05C50.053 17.1833 50.3363 18.5333 50.3363 20.1V31.3C50.3363 32.1667 50.0863 32.8833 49.5863 33.45C49.1197 33.9833 48.553 34.45 47.8863 34.85C45.7197 36.15 42.6697 36.8 38.7363 36.8C36.9697 36.8 35.3697 36.6333 33.9363 36.3C32.5363 35.9667 31.3197 35.4667 30.2863 34.8C29.2863 34.1333 28.503 33.2833 27.9363 32.25C27.403 31.2167 27.1363 30.0167 27.1363 28.65C27.1363 26.35 27.8197 24.5833 29.1863 23.35C30.553 22.1167 32.6697 21.35 35.5363 21.05L42.0863 20.35V20C42.0863 19.0333 41.653 18.35 40.7863 17.95C39.953 17.5167 38.7363 17.3 37.1363 17.3C35.8697 17.3 34.6363 17.4333 33.4363 17.7C32.2363 17.9667 31.153 18.3 30.1863 18.7C29.753 18.4 29.3863 17.95 29.0863 17.35C28.7863 16.7167 28.6363 16.0667 28.6363 15.4C28.6363 14.5333 28.8363 13.85 29.2363 13.35C29.6697 12.8167 30.3197 12.3667 31.1863 12C32.153 11.6333 33.2863 11.3667 34.5863 11.2C35.9197 11.0333 37.1697 10.95 38.3363 10.95ZM69.0418 35.25C68.5751 35.65 67.9418 35.9667 67.1418 36.2C66.3418 36.4667 65.3918 36.6 64.2918 36.6C62.9251 36.6 61.7418 36.4 60.7418 36C59.7418 35.6333 59.0751 35.1 58.7418 34.4C58.3751 33.6 57.9418 32.3333 57.4418 30.6C56.9751 28.8667 56.5085 26.9667 56.0418 24.9C55.5751 22.8333 55.1251 20.7333 54.6918 18.6C54.2918 16.4667 53.9751 14.5833 53.7418 12.95C54.2085 12.4833 54.8251 12.0833 55.5918 11.75C56.3918 11.3833 57.2585 11.2 58.1918 11.2C59.3585 11.2 60.3085 11.4667 61.0418 12C61.8085 12.5 62.2751 13.3833 62.4418 14.65C62.7751 17.1833 63.0585 19.2833 63.2918 20.95C63.5251 22.5833 63.7085 23.9333 63.8418 25C64.0085 26.0333 64.1251 26.8333 64.1918 27.4C64.2918 27.9333 64.3751 28.3667 64.4418 28.7H64.6418C64.7418 28.1667 64.9085 27.4 65.1418 26.4C65.4085 25.3667 65.7085 24.2 66.0418 22.9C66.3751 21.6 66.7251 20.2 67.0918 18.7C67.4585 17.1667 67.8251 15.65 68.1918 14.15C68.8585 13.7833 69.5085 13.5 70.1418 13.3C70.8085 13.1 71.6251 13 72.5918 13C73.7585 13 74.7585 13.1833 75.5918 13.55C76.4251 13.9167 76.9585 14.4833 77.1918 15.25C77.5918 16.7167 77.9751 18.15 78.3418 19.55C78.7085 20.9167 79.0418 22.2 79.3418 23.4C79.6418 24.5667 79.9085 25.6167 80.1418 26.55C80.3751 27.45 80.5418 28.1667 80.6418 28.7H80.8918C81.2585 26.1333 81.6085 23.4667 81.9418 20.7C82.3085 17.9333 82.6418 15.1167 82.9418 12.25C83.5418 11.8833 84.1751 11.6167 84.8418 11.45C85.5085 11.2833 86.1751 11.2 86.8418 11.2C88.0085 11.2 88.9751 11.45 89.7418 11.95C90.5085 12.45 90.8918 13.3167 90.8918 14.55C90.8918 15.0833 90.8085 15.8833 90.6418 16.95C90.4751 18.0167 90.2585 19.2167 89.9918 20.55C89.7251 21.8833 89.4085 23.2833 89.0418 24.75C88.7085 26.2167 88.3585 27.6333 87.9918 29C87.6585 30.3667 87.3251 31.6 86.9918 32.7C86.6918 33.8 86.4251 34.65 86.1918 35.25C85.7251 35.65 85.0085 35.9667 84.0418 36.2C83.0751 36.4667 82.0418 36.6 80.9418 36.6C78.1418 36.6 76.4918 35.9 75.9918 34.5C75.7918 33.9 75.5418 33.15 75.2418 32.25C74.9418 31.3167 74.6251 30.3 74.2918 29.2C73.9585 28.1 73.6418 26.9667 73.3418 25.8C73.0418 24.6 72.7918 23.45 72.5918 22.35C72.3585 23.5167 72.0751 24.7333 71.7418 26C71.4085 27.2333 71.0585 28.45 70.6918 29.65C70.3585 30.8167 70.0418 31.9 69.7418 32.9C69.4418 33.8667 69.2085 34.65 69.0418 35.25ZM115.243 28.75C115.243 31.2833 114.293 33.2667 112.393 34.7C110.493 36.1333 107.693 36.85 103.993 36.85C102.593 36.85 101.293 36.75 100.093 36.55C98.8926 36.35 97.8592 36.05 96.9926 35.65C96.1592 35.2167 95.4926 34.6833 94.9926 34.05C94.5259 33.4167 94.2926 32.6667 94.2926 31.8C94.2926 31 94.4592 30.3333 94.7926 29.8C95.1259 29.2333 95.5259 28.7667 95.9926 28.4C96.9592 28.9333 98.0592 29.4167 99.2926 29.85C100.559 30.25 102.009 30.45 103.643 30.45C104.676 30.45 105.459 30.3 105.993 30C106.559 29.7 106.843 29.3 106.843 28.8C106.843 28.3333 106.643 27.9667 106.243 27.7C105.843 27.4333 105.176 27.2167 104.243 27.05L102.743 26.75C99.8426 26.1833 97.6759 25.3 96.2426 24.1C94.8426 22.8667 94.1426 21.1167 94.1426 18.85C94.1426 17.6167 94.4092 16.5 94.9426 15.5C95.4759 14.5 96.2259 13.6667 97.1926 13C98.1592 12.3333 99.3092 11.8167 100.643 11.45C102.009 11.0833 103.509 10.9 105.143 10.9C106.376 10.9 107.526 11 108.593 11.2C109.693 11.3667 110.643 11.6333 111.443 12C112.243 12.3667 112.876 12.85 113.343 13.45C113.809 14.0167 114.043 14.7 114.043 15.5C114.043 16.2667 113.893 16.9333 113.593 17.5C113.326 18.0333 112.976 18.4833 112.543 18.85C112.276 18.6833 111.876 18.5167 111.343 18.35C110.809 18.15 110.226 17.9833 109.593 17.85C108.959 17.6833 108.309 17.55 107.643 17.45C107.009 17.35 106.426 17.3 105.893 17.3C104.793 17.3 103.943 17.4333 103.343 17.7C102.743 17.9333 102.443 18.3167 102.443 18.85C102.443 19.2167 102.609 19.5167 102.943 19.75C103.276 19.9833 103.909 20.2 104.843 20.4L106.393 20.75C109.593 21.4833 111.859 22.5 113.193 23.8C114.559 25.0667 115.243 26.7167 115.243 28.75ZM119.152 4.95C119.152 3.68333 119.569 2.61666 120.402 1.75C121.269 0.883331 122.402 0.449999 123.802 0.449999C125.202 0.449999 126.319 0.883331 127.152 1.75C128.019 2.61666 128.452 3.68333 128.452 4.95C128.452 6.21667 128.019 7.28333 127.152 8.15C126.319 9.01667 125.202 9.45 123.802 9.45C122.402 9.45 121.269 9.01667 120.402 8.15C119.569 7.28333 119.152 6.21667 119.152 4.95ZM128.052 35.95C127.685 36.0167 127.135 36.1 126.402 36.2C125.702 36.3333 124.985 36.4 124.252 36.4C123.519 36.4 122.852 36.35 122.252 36.25C121.685 36.15 121.202 35.95 120.802 35.65C120.402 35.35 120.085 34.95 119.852 34.45C119.652 33.9167 119.552 33.2333 119.552 32.4V12.05C119.919 11.9833 120.452 11.9 121.152 11.8C121.885 11.6667 122.619 11.6 123.352 11.6C124.085 11.6 124.735 11.65 125.302 11.75C125.902 11.85 126.402 12.05 126.802 12.35C127.202 12.65 127.502 13.0667 127.702 13.6C127.935 14.1 128.052 14.7667 128.052 15.6V35.95ZM141.963 27.65C141.963 28.5167 142.23 29.1333 142.763 29.5C143.33 29.8667 144.113 30.05 145.113 30.05C145.613 30.05 146.13 30.0167 146.663 29.95C147.197 29.85 147.663 29.7333 148.063 29.6C148.363 29.9667 148.613 30.3833 148.813 30.85C149.047 31.2833 149.163 31.8167 149.163 32.45C149.163 33.7167 148.68 34.75 147.713 35.55C146.78 36.35 145.113 36.75 142.713 36.75C139.78 36.75 137.513 36.0833 135.913 34.75C134.347 33.4167 133.563 31.25 133.563 28.25V6.85C133.93 6.75 134.447 6.65 135.113 6.55C135.813 6.41666 136.547 6.35 137.313 6.35C138.78 6.35 139.913 6.61666 140.713 7.15C141.547 7.65 141.963 8.73333 141.963 10.4V13.6H148.513C148.713 13.9667 148.897 14.4333 149.063 15C149.263 15.5333 149.363 16.1333 149.363 16.8C149.363 17.9667 149.097 18.8167 148.563 19.35C148.063 19.85 147.38 20.1 146.513 20.1H141.963V27.65ZM153.283 4.95C153.283 3.68333 153.699 2.61666 154.533 1.75C155.399 0.883331 156.533 0.449999 157.933 0.449999C159.333 0.449999 160.449 0.883331 161.283 1.75C162.149 2.61666 162.583 3.68333 162.583 4.95C162.583 6.21667 162.149 7.28333 161.283 8.15C160.449 9.01667 159.333 9.45 157.933 9.45C156.533 9.45 155.399 9.01667 154.533 8.15C153.699 7.28333 153.283 6.21667 153.283 4.95ZM162.183 35.95C161.816 36.0167 161.266 36.1 160.533 36.2C159.833 36.3333 159.116 36.4 158.383 36.4C157.649 36.4 156.983 36.35 156.383 36.25C155.816 36.15 155.333 35.95 154.933 35.65C154.533 35.35 154.216 34.95 153.983 34.45C153.783 33.9167 153.683 33.2333 153.683 32.4V12.05C154.049 11.9833 154.583 11.9 155.283 11.8C156.016 11.6667 156.749 11.6 157.483 11.6C158.216 11.6 158.866 11.65 159.433 11.75C160.033 11.85 160.533 12.05 160.933 12.35C161.333 12.65 161.633 13.0667 161.833 13.6C162.066 14.1 162.183 14.7667 162.183 15.6V35.95ZM183.844 35.35C183.377 35.7167 182.694 36.0167 181.794 36.25C180.894 36.4833 179.877 36.6 178.744 36.6C177.444 36.6 176.311 36.4333 175.344 36.1C174.411 35.7667 173.761 35.2333 173.394 34.5C173.094 33.9333 172.727 33.15 172.294 32.15C171.894 31.1167 171.461 29.9833 170.994 28.75C170.527 27.4833 170.044 26.1333 169.544 24.7C169.044 23.2667 168.561 21.85 168.094 20.45C167.661 19.05 167.261 17.7 166.894 16.4C166.527 15.1 166.227 13.95 165.994 12.95C166.461 12.4833 167.077 12.0833 167.844 11.75C168.644 11.3833 169.511 11.2 170.444 11.2C171.611 11.2 172.561 11.45 173.294 11.95C174.061 12.4167 174.627 13.3167 174.994 14.65L176.944 22.3C177.311 23.8 177.661 25.1667 177.994 26.4C178.327 27.6 178.577 28.5333 178.744 29.2H178.994C179.627 26.7333 180.294 24 180.994 21C181.694 18 182.327 15.05 182.894 12.15C183.461 11.85 184.094 11.6167 184.794 11.45C185.527 11.2833 186.227 11.2 186.894 11.2C188.061 11.2 189.044 11.45 189.844 11.95C190.644 12.45 191.044 13.3167 191.044 14.55C191.044 15.0833 190.911 15.8667 190.644 16.9C190.411 17.9 190.094 19.05 189.694 20.35C189.327 21.6167 188.877 22.9667 188.344 24.4C187.844 25.8333 187.327 27.2333 186.794 28.6C186.261 29.9667 185.727 31.25 185.194 32.45C184.694 33.6167 184.244 34.5833 183.844 35.35ZM207.446 36.8C205.479 36.8 203.646 36.5333 201.946 36C200.279 35.4333 198.813 34.6 197.546 33.5C196.313 32.4 195.329 31.0167 194.596 29.35C193.896 27.6833 193.546 25.7333 193.546 23.5C193.546 21.3 193.896 19.4167 194.596 17.85C195.329 16.25 196.279 14.95 197.446 13.95C198.613 12.9167 199.946 12.1667 201.446 11.7C202.946 11.2 204.479 10.95 206.046 10.95C207.813 10.95 209.413 11.2167 210.846 11.75C212.313 12.2833 213.563 13.0167 214.596 13.95C215.663 14.8833 216.479 16 217.046 17.3C217.646 18.6 217.946 20.0167 217.946 21.55C217.946 22.6833 217.629 23.55 216.996 24.15C216.363 24.75 215.479 25.1333 214.346 25.3L201.996 27.15C202.363 28.25 203.113 29.0833 204.246 29.65C205.379 30.1833 206.679 30.45 208.146 30.45C209.513 30.45 210.796 30.2833 211.996 29.95C213.229 29.5833 214.229 29.1667 214.996 28.7C215.529 29.0333 215.979 29.5 216.346 30.1C216.713 30.7 216.896 31.3333 216.896 32C216.896 33.5 216.196 34.6167 214.796 35.35C213.729 35.9167 212.529 36.3 211.196 36.5C209.863 36.7 208.613 36.8 207.446 36.8ZM206.046 17.15C205.246 17.15 204.546 17.2833 203.946 17.55C203.379 17.8167 202.913 18.1667 202.546 18.6C202.179 19 201.896 19.4667 201.696 20C201.529 20.5 201.429 21.0167 201.396 21.55L209.946 20.15C209.846 19.4833 209.479 18.8167 208.846 18.15C208.213 17.4833 207.279 17.15 206.046 17.15ZM234.038 19.75C235.438 19.75 236.504 19.4333 237.238 18.8C238.004 18.1333 238.388 17.1333 238.388 15.8C238.388 14.5333 237.988 13.5667 237.188 12.9C236.421 12.2 235.288 11.85 233.788 11.85C233.254 11.85 232.804 11.8667 232.438 11.9C232.104 11.9 231.754 11.9333 231.388 12V19.75H234.038ZM231.438 35.8C231.071 35.9 230.488 36 229.688 36.1C228.921 36.2 228.154 36.25 227.388 36.25C226.621 36.25 225.938 36.1833 225.338 36.05C224.771 35.95 224.288 35.75 223.888 35.45C223.488 35.15 223.188 34.7333 222.988 34.2C222.788 33.6667 222.688 32.9667 222.688 32.1V8.55C222.688 7.85 222.871 7.31666 223.238 6.95C223.638 6.55 224.171 6.23333 224.838 6C225.971 5.6 227.254 5.31666 228.688 5.15C230.154 4.95 231.621 4.85 233.088 4.85C237.688 4.85 241.204 5.83333 243.638 7.8C246.071 9.76667 247.288 12.4333 247.288 15.8C247.288 17.4333 247.021 18.9167 246.488 20.25C245.988 21.55 245.221 22.6833 244.188 23.65C243.188 24.5833 241.904 25.3167 240.338 25.85C238.804 26.35 237.021 26.6 234.988 26.6H231.438V35.8ZM263.208 36.8C261.241 36.8 259.408 36.5333 257.708 36C256.041 35.4333 254.574 34.6 253.308 33.5C252.074 32.4 251.091 31.0167 250.358 29.35C249.658 27.6833 249.308 25.7333 249.308 23.5C249.308 21.3 249.658 19.4167 250.358 17.85C251.091 16.25 252.041 14.95 253.208 13.95C254.374 12.9167 255.708 12.1667 257.208 11.7C258.708 11.2 260.241 10.95 261.808 10.95C263.574 10.95 265.174 11.2167 266.608 11.75C268.074 12.2833 269.324 13.0167 270.358 13.95C271.424 14.8833 272.241 16 272.808 17.3C273.408 18.6 273.708 20.0167 273.708 21.55C273.708 22.6833 273.391 23.55 272.758 24.15C272.124 24.75 271.241 25.1333 270.108 25.3L257.758 27.15C258.124 28.25 258.874 29.0833 260.008 29.65C261.141 30.1833 262.441 30.45 263.908 30.45C265.274 30.45 266.558 30.2833 267.758 29.95C268.991 29.5833 269.991 29.1667 270.758 28.7C271.291 29.0333 271.741 29.5 272.108 30.1C272.474 30.7 272.658 31.3333 272.658 32C272.658 33.5 271.958 34.6167 270.558 35.35C269.491 35.9167 268.291 36.3 266.958 36.5C265.624 36.7 264.374 36.8 263.208 36.8ZM261.808 17.15C261.008 17.15 260.308 17.2833 259.708 17.55C259.141 17.8167 258.674 18.1667 258.308 18.6C257.941 19 257.658 19.4667 257.458 20C257.291 20.5 257.191 21.0167 257.158 21.55L265.708 20.15C265.608 19.4833 265.241 18.8167 264.608 18.15C263.974 17.4833 263.041 17.15 261.808 17.15ZM286.299 27.65C286.299 28.5167 286.566 29.1333 287.099 29.5C287.666 29.8667 288.449 30.05 289.449 30.05C289.949 30.05 290.466 30.0167 290.999 29.95C291.533 29.85 291.999 29.7333 292.399 29.6C292.699 29.9667 292.949 30.3833 293.149 30.85C293.383 31.2833 293.499 31.8167 293.499 32.45C293.499 33.7167 293.016 34.75 292.049 35.55C291.116 36.35 289.449 36.75 287.049 36.75C284.116 36.75 281.849 36.0833 280.249 34.75C278.683 33.4167 277.899 31.25 277.899 28.25V6.85C278.266 6.75 278.783 6.65 279.449 6.55C280.149 6.41666 280.883 6.35 281.649 6.35C283.116 6.35 284.249 6.61666 285.049 7.15C285.883 7.65 286.299 8.73333 286.299 10.4V13.6H292.849C293.049 13.9667 293.233 14.4333 293.399 15C293.599 15.5333 293.699 16.1333 293.699 16.8C293.699 17.9667 293.433 18.8167 292.899 19.35C292.399 19.85 291.716 20.1 290.849 20.1H286.299V27.65ZM318.319 28.75C318.319 31.2833 317.369 33.2667 315.469 34.7C313.569 36.1333 310.769 36.85 307.069 36.85C305.669 36.85 304.369 36.75 303.169 36.55C301.969 36.35 300.935 36.05 300.069 35.65C299.235 35.2167 298.569 34.6833 298.069 34.05C297.602 33.4167 297.369 32.6667 297.369 31.8C297.369 31 297.535 30.3333 297.869 29.8C298.202 29.2333 298.602 28.7667 299.069 28.4C300.035 28.9333 301.135 29.4167 302.369 29.85C303.635 30.25 305.085 30.45 306.719 30.45C307.752 30.45 308.535 30.3 309.069 30C309.635 29.7 309.919 29.3 309.919 28.8C309.919 28.3333 309.719 27.9667 309.319 27.7C308.919 27.4333 308.252 27.2167 307.319 27.05L305.819 26.75C302.919 26.1833 300.752 25.3 299.319 24.1C297.919 22.8667 297.219 21.1167 297.219 18.85C297.219 17.6167 297.485 16.5 298.019 15.5C298.552 14.5 299.302 13.6667 300.269 13C301.235 12.3333 302.385 11.8167 303.719 11.45C305.085 11.0833 306.585 10.9 308.219 10.9C309.452 10.9 310.602 11 311.669 11.2C312.769 11.3667 313.719 11.6333 314.519 12C315.319 12.3667 315.952 12.85 316.419 13.45C316.885 14.0167 317.119 14.7 317.119 15.5C317.119 16.2667 316.969 16.9333 316.669 17.5C316.402 18.0333 316.052 18.4833 315.619 18.85C315.352 18.6833 314.952 18.5167 314.419 18.35C313.885 18.15 313.302 17.9833 312.669 17.85C312.035 17.6833 311.385 17.55 310.719 17.45C310.085 17.35 309.502 17.3 308.969 17.3C307.869 17.3 307.019 17.4333 306.419 17.7C305.819 17.9333 305.519 18.3167 305.519 18.85C305.519 19.2167 305.685 19.5167 306.019 19.75C306.352 19.9833 306.985 20.2 307.919 20.4L309.469 20.75C312.669 21.4833 314.935 22.5 316.269 23.8C317.635 25.0667 318.319 26.7167 318.319 28.75Z" fill="white"/>
</svg>
