<svg width="39" height="29" viewBox="0 0 39 29" fill="none" xmlns="http://www.w3.org/2000/svg">
<path d="M22.2861 23.7002H36.2139C36.8133 23.7002 37.3929 23.9477 37.8232 24.3955C38.2542 24.8441 38.4999 25.4569 38.5 26.0996C38.5 26.7425 38.2542 27.356 37.8232 27.8047C37.3929 28.2525 36.8133 28.5 36.2139 28.5H22.2861C21.6867 28.5 21.1071 28.2525 20.6768 27.8047C20.2458 27.356 20 26.7425 20 26.0996C20.0001 25.4569 20.2458 24.8441 20.6768 24.3955C21.1071 23.9477 21.6867 23.7002 22.2861 23.7002ZM2.78613 12.0996H36.2139C36.8134 12.0996 37.3929 12.3479 37.8232 12.7959C38.2542 13.2446 38.5 13.8571 38.5 14.5C38.5 15.1429 38.2542 15.7554 37.8232 16.2041C37.3929 16.6521 36.8134 16.9004 36.2139 16.9004H2.78613C2.18659 16.9004 1.6071 16.6521 1.17676 16.2041C0.745754 15.7554 0.5 15.1429 0.5 14.5C0.5 13.8571 0.745754 13.2446 1.17676 12.7959C1.6071 12.3479 2.18659 12.0996 2.78613 12.0996ZM2.78613 0.5H16.7139C17.3133 0.5 17.8929 0.747539 18.3232 1.19531C18.7542 1.644 19 2.25753 19 2.90039C18.9999 3.54311 18.7542 4.1559 18.3232 4.60449C17.8929 5.05233 17.3133 5.2998 16.7139 5.2998H2.78613C2.18668 5.2998 1.60708 5.05233 1.17676 4.60449C0.745841 4.1559 0.500099 3.54311 0.5 2.90039C0.5 2.25753 0.745754 1.644 1.17676 1.19531C1.60707 0.747539 2.18672 0.5 2.78613 0.5Z" fill="#0B3232" stroke="white"/>
</svg>
