<svg width="268" height="31" viewBox="0 0 268 31" fill="none" xmlns="http://www.w3.org/2000/svg">
<path d="M9.74838 16.35C10.9244 16.35 11.8204 16.084 12.4364 15.552C13.0804 14.992 13.4024 14.152 13.4024 13.032C13.4024 11.968 13.0664 11.156 12.3944 10.596C11.7504 10.008 10.7984 9.714 9.53838 9.714C9.09038 9.714 8.71238 9.728 8.40438 9.756C8.12438 9.756 7.83038 9.784 7.52238 9.84V16.35H9.74838ZM7.56438 29.832C7.25638 29.916 6.76638 30 6.09438 30.084C5.45038 30.168 4.80638 30.21 4.16238 30.21C3.51838 30.21 2.94438 30.154 2.44038 30.042C1.96438 29.958 1.55838 29.79 1.22238 29.538C0.886375 29.286 0.634375 28.936 0.466375 28.488C0.298375 28.04 0.214375 27.452 0.214375 26.724V6.942C0.214375 6.354 0.368375 5.906 0.676375 5.598C1.01238 5.262 1.46038 4.996 2.02038 4.8C2.97238 4.464 4.05038 4.226 5.25438 4.086C6.48638 3.918 7.71838 3.834 8.95038 3.834C12.8144 3.834 15.7684 4.66 17.8124 6.312C19.8564 7.964 20.8784 10.204 20.8784 13.032C20.8784 14.404 20.6544 15.65 20.2064 16.77C19.7864 17.862 19.1424 18.814 18.2744 19.626C17.4344 20.41 16.3564 21.026 15.0404 21.474C13.7524 21.894 12.2544 22.104 10.5464 22.104H7.56438V29.832ZM32.3985 25.464C32.8745 25.464 33.3925 25.422 33.9525 25.338C34.5405 25.226 34.9745 25.086 35.2545 24.918V21.558L32.2305 21.81C31.4465 21.866 30.8025 22.034 30.2985 22.314C29.7945 22.594 29.5425 23.014 29.5425 23.574C29.5425 24.134 29.7525 24.596 30.1725 24.96C30.6205 25.296 31.3625 25.464 32.3985 25.464ZM32.0625 8.958C33.5745 8.958 34.9465 9.112 36.1785 9.42C37.4385 9.728 38.5025 10.204 39.3705 10.848C40.2665 11.464 40.9525 12.262 41.4285 13.242C41.9045 14.194 42.1425 15.328 42.1425 16.644V26.052C42.1425 26.78 41.9325 27.382 41.5125 27.858C41.1205 28.306 40.6445 28.698 40.0845 29.034C38.2645 30.126 35.7025 30.672 32.3985 30.672C30.9145 30.672 29.5705 30.532 28.3665 30.252C27.1905 29.972 26.1685 29.552 25.3005 28.992C24.4605 28.432 23.8025 27.718 23.3265 26.85C22.8785 25.982 22.6545 24.974 22.6545 23.826C22.6545 21.894 23.2285 20.41 24.3765 19.374C25.5245 18.338 27.3025 17.694 29.7105 17.442L35.2125 16.854V16.56C35.2125 15.748 34.8485 15.174 34.1205 14.838C33.4205 14.474 32.3985 14.292 31.0545 14.292C29.9905 14.292 28.9545 14.404 27.9465 14.628C26.9385 14.852 26.0285 15.132 25.2165 15.468C24.8525 15.216 24.5445 14.838 24.2925 14.334C24.0405 13.802 23.9145 13.256 23.9145 12.696C23.9145 11.968 24.0825 11.394 24.4185 10.974C24.7825 10.526 25.3285 10.148 26.0565 9.84C26.8685 9.532 27.8205 9.308 28.9125 9.168C30.0325 9.028 31.0825 8.958 32.0625 8.958ZM57.8551 29.37C57.4631 29.706 56.9311 29.972 56.2591 30.168C55.5871 30.392 54.7891 30.504 53.8651 30.504C52.7171 30.504 51.7231 30.336 50.8831 30C50.0431 29.692 49.4831 29.244 49.2031 28.656C48.8951 27.984 48.5311 26.92 48.1111 25.464C47.7191 24.008 47.3271 22.412 46.9351 20.676C46.5431 18.94 46.1651 17.176 45.8011 15.384C45.4651 13.592 45.1991 12.01 45.0031 10.638C45.3951 10.246 45.9131 9.91 46.5571 9.63C47.2291 9.322 47.9571 9.168 48.7411 9.168C49.7211 9.168 50.5191 9.392 51.1351 9.84C51.7791 10.26 52.1711 11.002 52.3111 12.066C52.5911 14.194 52.8291 15.958 53.0251 17.358C53.2211 18.73 53.3751 19.864 53.4871 20.76C53.6271 21.628 53.7251 22.3 53.7811 22.776C53.8651 23.224 53.9351 23.588 53.9911 23.868H54.1591C54.2431 23.42 54.3831 22.776 54.5791 21.936C54.8031 21.068 55.0551 20.088 55.3351 18.996C55.6151 17.904 55.9091 16.728 56.2171 15.468C56.5251 14.18 56.8331 12.906 57.1411 11.646C57.7011 11.338 58.2471 11.1 58.7791 10.932C59.3391 10.764 60.0251 10.68 60.8371 10.68C61.8171 10.68 62.6571 10.834 63.3571 11.142C64.0571 11.45 64.5051 11.926 64.7011 12.57C65.0371 13.802 65.3591 15.006 65.6671 16.182C65.9751 17.33 66.2551 18.408 66.5071 19.416C66.7591 20.396 66.9831 21.278 67.1791 22.062C67.3751 22.818 67.5151 23.42 67.5991 23.868H67.8091C68.1171 21.712 68.4111 19.472 68.6911 17.148C68.9991 14.824 69.2791 12.458 69.5311 10.05C70.0351 9.742 70.5671 9.518 71.1271 9.378C71.6871 9.238 72.2471 9.168 72.8071 9.168C73.7871 9.168 74.5991 9.378 75.2431 9.798C75.8871 10.218 76.2091 10.946 76.2091 11.982C76.2091 12.43 76.1391 13.102 75.9991 13.998C75.8591 14.894 75.6771 15.902 75.4531 17.022C75.2291 18.142 74.9631 19.318 74.6551 20.55C74.3751 21.782 74.0811 22.972 73.7731 24.12C73.4931 25.268 73.2131 26.304 72.9331 27.228C72.6811 28.152 72.4571 28.866 72.2611 29.37C71.8691 29.706 71.2671 29.972 70.4551 30.168C69.6431 30.392 68.7751 30.504 67.8511 30.504C65.4991 30.504 64.1131 29.916 63.6931 28.74C63.5251 28.236 63.3151 27.606 63.0631 26.85C62.8111 26.066 62.5451 25.212 62.2651 24.288C61.9851 23.364 61.7191 22.412 61.4671 21.432C61.2151 20.424 61.0051 19.458 60.8371 18.534C60.6411 19.514 60.4031 20.536 60.1231 21.6C59.8431 22.636 59.5491 23.658 59.2411 24.666C58.9611 25.646 58.6951 26.556 58.4431 27.396C58.1911 28.208 57.9951 28.866 57.8551 29.37ZM96.6638 23.91C96.6638 26.038 95.8658 27.704 94.2698 28.908C92.6738 30.112 90.3218 30.714 87.2138 30.714C86.0378 30.714 84.9458 30.63 83.9378 30.462C82.9298 30.294 82.0618 30.042 81.3338 29.706C80.6338 29.342 80.0738 28.894 79.6538 28.362C79.2618 27.83 79.0658 27.2 79.0658 26.472C79.0658 25.8 79.2058 25.24 79.4858 24.792C79.7658 24.316 80.1018 23.924 80.4938 23.616C81.3058 24.064 82.2298 24.47 83.2658 24.834C84.3298 25.17 85.5478 25.338 86.9198 25.338C87.7878 25.338 88.4458 25.212 88.8938 24.96C89.3698 24.708 89.6078 24.372 89.6078 23.952C89.6078 23.56 89.4398 23.252 89.1038 23.028C88.7678 22.804 88.2078 22.622 87.4238 22.482L86.1638 22.23C83.7278 21.754 81.9078 21.012 80.7038 20.004C79.5278 18.968 78.9398 17.498 78.9398 15.594C78.9398 14.558 79.1638 13.62 79.6118 12.78C80.0598 11.94 80.6898 11.24 81.5018 10.68C82.3138 10.12 83.2798 9.686 84.3998 9.378C85.5478 9.07 86.8078 8.916 88.1798 8.916C89.2158 8.916 90.1818 9 91.0778 9.168C92.0018 9.308 92.7998 9.532 93.4718 9.84C94.1438 10.148 94.6758 10.554 95.0678 11.058C95.4598 11.534 95.6558 12.108 95.6558 12.78C95.6558 13.424 95.5298 13.984 95.2778 14.46C95.0538 14.908 94.7598 15.286 94.3958 15.594C94.1718 15.454 93.8358 15.314 93.3878 15.174C92.9398 15.006 92.4498 14.866 91.9178 14.754C91.3858 14.614 90.8398 14.502 90.2798 14.418C89.7478 14.334 89.2578 14.292 88.8098 14.292C87.8858 14.292 87.1718 14.404 86.6678 14.628C86.1638 14.824 85.9118 15.146 85.9118 15.594C85.9118 15.902 86.0518 16.154 86.3318 16.35C86.6118 16.546 87.1438 16.728 87.9278 16.896L89.2298 17.19C91.9178 17.806 93.8218 18.66 94.9418 19.752C96.0898 20.816 96.6638 22.202 96.6638 23.91ZM99.9476 3.918C99.9476 2.854 100.298 1.958 100.998 1.23C101.726 0.501998 102.678 0.137999 103.854 0.137999C105.03 0.137999 105.968 0.501998 106.668 1.23C107.396 1.958 107.76 2.854 107.76 3.918C107.76 4.982 107.396 5.878 106.668 6.606C105.968 7.334 105.03 7.698 103.854 7.698C102.678 7.698 101.726 7.334 100.998 6.606C100.298 5.878 99.9476 4.982 99.9476 3.918ZM107.424 29.958C107.116 30.014 106.654 30.084 106.038 30.168C105.45 30.28 104.848 30.336 104.232 30.336C103.616 30.336 103.056 30.294 102.552 30.21C102.076 30.126 101.67 29.958 101.334 29.706C100.998 29.454 100.732 29.118 100.536 28.698C100.368 28.25 100.284 27.676 100.284 26.976V9.882C100.592 9.826 101.04 9.756 101.628 9.672C102.244 9.56 102.86 9.504 103.476 9.504C104.092 9.504 104.638 9.546 105.114 9.63C105.618 9.714 106.038 9.882 106.374 10.134C106.71 10.386 106.962 10.736 107.13 11.184C107.326 11.604 107.424 12.164 107.424 12.864V29.958ZM119.109 22.986C119.109 23.714 119.333 24.232 119.781 24.54C120.257 24.848 120.915 25.002 121.755 25.002C122.175 25.002 122.609 24.974 123.057 24.918C123.505 24.834 123.897 24.736 124.233 24.624C124.485 24.932 124.695 25.282 124.863 25.674C125.059 26.038 125.157 26.486 125.157 27.018C125.157 28.082 124.751 28.95 123.939 29.622C123.155 30.294 121.755 30.63 119.739 30.63C117.275 30.63 115.371 30.07 114.027 28.95C112.711 27.83 112.053 26.01 112.053 23.49V5.514C112.361 5.43 112.795 5.346 113.355 5.262C113.943 5.15 114.559 5.094 115.203 5.094C116.435 5.094 117.387 5.318 118.059 5.766C118.759 6.186 119.109 7.096 119.109 8.496V11.184H124.611C124.779 11.492 124.933 11.884 125.073 12.36C125.241 12.808 125.325 13.312 125.325 13.872C125.325 14.852 125.101 15.566 124.653 16.014C124.233 16.434 123.659 16.644 122.931 16.644H119.109V22.986ZM128.618 3.918C128.618 2.854 128.968 1.958 129.668 1.23C130.396 0.501998 131.348 0.137999 132.524 0.137999C133.7 0.137999 134.638 0.501998 135.338 1.23C136.066 1.958 136.43 2.854 136.43 3.918C136.43 4.982 136.066 5.878 135.338 6.606C134.638 7.334 133.7 7.698 132.524 7.698C131.348 7.698 130.396 7.334 129.668 6.606C128.968 5.878 128.618 4.982 128.618 3.918ZM136.094 29.958C135.786 30.014 135.324 30.084 134.708 30.168C134.12 30.28 133.518 30.336 132.902 30.336C132.286 30.336 131.726 30.294 131.222 30.21C130.746 30.126 130.34 29.958 130.004 29.706C129.668 29.454 129.402 29.118 129.206 28.698C129.038 28.25 128.954 27.676 128.954 26.976V9.882C129.262 9.826 129.71 9.756 130.298 9.672C130.914 9.56 131.53 9.504 132.146 9.504C132.762 9.504 133.308 9.546 133.784 9.63C134.288 9.714 134.708 9.882 135.044 10.134C135.38 10.386 135.632 10.736 135.8 11.184C135.996 11.604 136.094 12.164 136.094 12.864V29.958ZM154.289 29.454C153.897 29.762 153.323 30.014 152.567 30.21C151.811 30.406 150.957 30.504 150.005 30.504C148.913 30.504 147.961 30.364 147.149 30.084C146.365 29.804 145.819 29.356 145.511 28.74C145.259 28.264 144.951 27.606 144.587 26.766C144.251 25.898 143.887 24.946 143.495 23.91C143.103 22.846 142.697 21.712 142.277 20.508C141.857 19.304 141.451 18.114 141.059 16.938C140.695 15.762 140.359 14.628 140.051 13.536C139.743 12.444 139.491 11.478 139.295 10.638C139.687 10.246 140.205 9.91 140.849 9.63C141.521 9.322 142.249 9.168 143.033 9.168C144.013 9.168 144.811 9.378 145.427 9.798C146.071 10.19 146.547 10.946 146.855 12.066L148.493 18.492C148.801 19.752 149.095 20.9 149.375 21.936C149.655 22.944 149.865 23.728 150.005 24.288H150.215C150.747 22.216 151.307 19.92 151.895 17.4C152.483 14.88 153.015 12.402 153.491 9.966C153.967 9.714 154.499 9.518 155.087 9.378C155.703 9.238 156.291 9.168 156.851 9.168C157.831 9.168 158.657 9.378 159.329 9.798C160.001 10.218 160.337 10.946 160.337 11.982C160.337 12.43 160.225 13.088 160.001 13.956C159.805 14.796 159.539 15.762 159.203 16.854C158.895 17.918 158.517 19.052 158.069 20.256C157.649 21.46 157.215 22.636 156.767 23.784C156.319 24.932 155.871 26.01 155.423 27.018C155.003 27.998 154.625 28.81 154.289 29.454ZM174.115 30.672C172.463 30.672 170.923 30.448 169.495 30C168.095 29.524 166.863 28.824 165.799 27.9C164.763 26.976 163.937 25.814 163.321 24.414C162.733 23.014 162.439 21.376 162.439 19.5C162.439 17.652 162.733 16.07 163.321 14.754C163.937 13.41 164.735 12.318 165.715 11.478C166.695 10.61 167.815 9.98 169.075 9.588C170.335 9.168 171.623 8.958 172.939 8.958C174.423 8.958 175.767 9.182 176.971 9.63C178.203 10.078 179.253 10.694 180.121 11.478C181.017 12.262 181.703 13.2 182.179 14.292C182.683 15.384 182.935 16.574 182.935 17.862C182.935 18.814 182.669 19.542 182.137 20.046C181.605 20.55 180.863 20.872 179.911 21.012L169.537 22.566C169.845 23.49 170.475 24.19 171.427 24.666C172.379 25.114 173.471 25.338 174.703 25.338C175.851 25.338 176.929 25.198 177.937 24.918C178.973 24.61 179.813 24.26 180.457 23.868C180.905 24.148 181.283 24.54 181.591 25.044C181.899 25.548 182.053 26.08 182.053 26.64C182.053 27.9 181.465 28.838 180.289 29.454C179.393 29.93 178.385 30.252 177.265 30.42C176.145 30.588 175.095 30.672 174.115 30.672ZM172.939 14.166C172.267 14.166 171.679 14.278 171.175 14.502C170.699 14.726 170.307 15.02 169.999 15.384C169.691 15.72 169.453 16.112 169.285 16.56C169.145 16.98 169.061 17.414 169.033 17.862L176.215 16.686C176.131 16.126 175.823 15.566 175.291 15.006C174.759 14.446 173.975 14.166 172.939 14.166Z" fill="#D97B4C"/>
<path d="M196.452 16.35C197.628 16.35 198.524 16.084 199.14 15.552C199.784 14.992 200.106 14.152 200.106 13.032C200.106 11.968 199.77 11.156 199.098 10.596C198.454 10.008 197.502 9.714 196.242 9.714C195.794 9.714 195.416 9.728 195.108 9.756C194.828 9.756 194.534 9.784 194.226 9.84V16.35H196.452ZM194.268 29.832C193.96 29.916 193.47 30 192.798 30.084C192.154 30.168 191.51 30.21 190.866 30.21C190.222 30.21 189.648 30.154 189.144 30.042C188.668 29.958 188.262 29.79 187.926 29.538C187.59 29.286 187.338 28.936 187.17 28.488C187.002 28.04 186.918 27.452 186.918 26.724V6.942C186.918 6.354 187.072 5.906 187.38 5.598C187.716 5.262 188.164 4.996 188.724 4.8C189.676 4.464 190.754 4.226 191.958 4.086C193.19 3.918 194.422 3.834 195.654 3.834C199.518 3.834 202.472 4.66 204.516 6.312C206.56 7.964 207.582 10.204 207.582 13.032C207.582 14.404 207.358 15.65 206.91 16.77C206.49 17.862 205.846 18.814 204.978 19.626C204.138 20.41 203.06 21.026 201.744 21.474C200.456 21.894 198.958 22.104 197.25 22.104H194.268V29.832ZM220.955 30.672C219.303 30.672 217.763 30.448 216.335 30C214.935 29.524 213.703 28.824 212.639 27.9C211.603 26.976 210.777 25.814 210.161 24.414C209.573 23.014 209.279 21.376 209.279 19.5C209.279 17.652 209.573 16.07 210.161 14.754C210.777 13.41 211.575 12.318 212.555 11.478C213.535 10.61 214.655 9.98 215.915 9.588C217.175 9.168 218.463 8.958 219.779 8.958C221.263 8.958 222.607 9.182 223.811 9.63C225.043 10.078 226.093 10.694 226.961 11.478C227.857 12.262 228.543 13.2 229.019 14.292C229.523 15.384 229.775 16.574 229.775 17.862C229.775 18.814 229.509 19.542 228.977 20.046C228.445 20.55 227.703 20.872 226.751 21.012L216.377 22.566C216.685 23.49 217.315 24.19 218.267 24.666C219.219 25.114 220.311 25.338 221.543 25.338C222.691 25.338 223.769 25.198 224.777 24.918C225.813 24.61 226.653 24.26 227.297 23.868C227.745 24.148 228.123 24.54 228.431 25.044C228.739 25.548 228.893 26.08 228.893 26.64C228.893 27.9 228.305 28.838 227.129 29.454C226.233 29.93 225.225 30.252 224.105 30.42C222.985 30.588 221.935 30.672 220.955 30.672ZM219.779 14.166C219.107 14.166 218.519 14.278 218.015 14.502C217.539 14.726 217.147 15.02 216.839 15.384C216.531 15.72 216.293 16.112 216.125 16.56C215.985 16.98 215.901 17.414 215.873 17.862L223.055 16.686C222.971 16.126 222.663 15.566 222.131 15.006C221.599 14.446 220.815 14.166 219.779 14.166ZM240.351 22.986C240.351 23.714 240.575 24.232 241.023 24.54C241.499 24.848 242.157 25.002 242.997 25.002C243.417 25.002 243.851 24.974 244.299 24.918C244.747 24.834 245.139 24.736 245.475 24.624C245.727 24.932 245.937 25.282 246.105 25.674C246.301 26.038 246.399 26.486 246.399 27.018C246.399 28.082 245.993 28.95 245.181 29.622C244.397 30.294 242.997 30.63 240.981 30.63C238.517 30.63 236.613 30.07 235.269 28.95C233.953 27.83 233.295 26.01 233.295 23.49V5.514C233.603 5.43 234.037 5.346 234.597 5.262C235.185 5.15 235.801 5.094 236.445 5.094C237.677 5.094 238.629 5.318 239.301 5.766C240.001 6.186 240.351 7.096 240.351 8.496V11.184H245.853C246.021 11.492 246.175 11.884 246.315 12.36C246.483 12.808 246.567 13.312 246.567 13.872C246.567 14.852 246.343 15.566 245.895 16.014C245.475 16.434 244.901 16.644 244.173 16.644H240.351V22.986ZM267.248 23.91C267.248 26.038 266.45 27.704 264.854 28.908C263.258 30.112 260.906 30.714 257.798 30.714C256.622 30.714 255.53 30.63 254.522 30.462C253.514 30.294 252.646 30.042 251.918 29.706C251.218 29.342 250.658 28.894 250.238 28.362C249.846 27.83 249.65 27.2 249.65 26.472C249.65 25.8 249.79 25.24 250.07 24.792C250.35 24.316 250.686 23.924 251.078 23.616C251.89 24.064 252.814 24.47 253.85 24.834C254.914 25.17 256.132 25.338 257.504 25.338C258.372 25.338 259.03 25.212 259.478 24.96C259.954 24.708 260.192 24.372 260.192 23.952C260.192 23.56 260.024 23.252 259.688 23.028C259.352 22.804 258.792 22.622 258.008 22.482L256.748 22.23C254.312 21.754 252.492 21.012 251.288 20.004C250.112 18.968 249.524 17.498 249.524 15.594C249.524 14.558 249.748 13.62 250.196 12.78C250.644 11.94 251.274 11.24 252.086 10.68C252.898 10.12 253.864 9.686 254.984 9.378C256.132 9.07 257.392 8.916 258.764 8.916C259.8 8.916 260.766 9 261.662 9.168C262.586 9.308 263.384 9.532 264.056 9.84C264.728 10.148 265.26 10.554 265.652 11.058C266.044 11.534 266.24 12.108 266.24 12.78C266.24 13.424 266.114 13.984 265.862 14.46C265.638 14.908 265.344 15.286 264.98 15.594C264.756 15.454 264.42 15.314 263.972 15.174C263.524 15.006 263.034 14.866 262.502 14.754C261.97 14.614 261.424 14.502 260.864 14.418C260.332 14.334 259.842 14.292 259.394 14.292C258.47 14.292 257.756 14.404 257.252 14.628C256.748 14.824 256.496 15.146 256.496 15.594C256.496 15.902 256.636 16.154 256.916 16.35C257.196 16.546 257.728 16.728 258.512 16.896L259.814 17.19C262.502 17.806 264.406 18.66 265.526 19.752C266.674 20.816 267.248 22.202 267.248 23.91Z" fill="#0B3232"/>
</svg>
