<svg width="123" height="340" viewBox="0 0 123 340" fill="none" xmlns="http://www.w3.org/2000/svg">
<path d="M119.136 263.988L1.36361 264.439L1.23768 231.568L119.01 231.117L119.136 263.988ZM119.424 339.046L1.65115 339.497L1.52522 306.626L119.298 306.175L119.424 339.046ZM77.1241 309.853L48.1204 309.964L47.9264 259.339L76.9301 259.228L77.1241 309.853ZM121.38 161.498C121.405 167.826 120.373 173.983 118.287 179.967C116.2 185.835 113.173 191.12 109.207 195.823C105.241 200.525 100.45 204.235 94.8355 206.952C89.1037 209.669 82.6636 211.042 75.5152 211.069C66.609 211.103 58.4567 209.083 51.0582 205.01C43.6593 200.82 37.7196 195.159 33.2391 188.028C28.7582 180.779 26.5004 172.643 26.4658 163.62C26.4335 155.182 28.2798 147.675 32.0046 141.098C35.7294 134.522 40.9833 129.404 47.7662 125.745C54.4315 121.969 62.393 120.064 71.6507 120.028L82.0218 119.989L82.2649 183.445L63.9837 183.515L63.8504 148.711C61.0379 148.722 58.6971 149.492 56.828 151.023C54.9588 152.553 53.6186 154.492 52.8073 156.839C51.8787 159.186 51.4196 161.708 51.43 164.403C51.4434 167.919 52.3342 171.021 54.1024 173.709C55.7528 176.281 58.3388 178.322 61.8602 179.832C65.3817 181.342 69.8963 182.086 75.4041 182.065C79.8571 182.048 83.5449 181.097 86.4674 179.21C89.3895 177.207 91.5471 174.503 92.9403 171.1C94.3335 167.696 95.0223 163.943 95.0066 159.842C94.9805 153.045 94.0206 147.189 92.1267 142.274C90.1153 137.243 88.4017 133.499 86.986 131.044L112.826 130.945C114.122 132.932 115.421 135.505 116.722 138.664C118.023 141.706 119.091 145.159 119.926 149.023C120.879 152.887 121.363 157.045 121.38 161.498ZM118.52 103.149L28.8722 103.493L28.7564 73.2587L118.404 72.9153L118.52 103.149ZM72.3499 73.0917L44.7524 73.1974C39.937 70.4034 35.7649 67.3139 32.2363 63.9289C28.7073 60.4268 26.932 55.8632 26.9104 50.2383C26.8987 47.1914 27.416 44.5527 28.4621 42.3221L61.8603 42.1942C60.9296 43.9556 60.2336 45.8333 59.7725 47.8272C59.1938 49.7044 58.9093 51.9321 58.9192 54.5102C58.9349 58.6118 60.1793 62.2398 62.6523 65.3944C65.1254 68.5491 68.3579 71.1148 72.3499 73.0917ZM121.527 16.3014C121.544 20.6373 120.035 24.3931 117 27.5688C113.848 30.6278 110.104 32.1655 105.768 32.1822C101.315 32.1992 97.5587 30.6902 94.5002 27.655C91.4412 24.5026 89.9034 20.7585 89.8868 16.4226C89.8702 12.0867 91.3795 8.38944 94.4146 5.33092C97.4494 2.1552 101.193 0.558819 105.646 0.54176C109.982 0.525149 113.738 2.0928 116.914 5.24472C119.973 8.2799 121.511 11.9654 121.527 16.3014Z" fill="#F1CABD"/>
</svg>
